# xmcd
#
# Track frame offsets: 
#        150
#        16741
#        58068
#        85644
#        104531
#        118347
#        144042
#        171038
#        181676
#
# Disc length: 2747 seconds
#
# Revision: 3
# Processed by: cddbd v1.5.2PL0 Copyright (c) Steve Scherf et al.
# Submitted via: ExactAudioCopy v0.95b2
#
DISCID=680ab909
DTITLE=The Butterfield Blues Band - The Resurrection of Pigboy Crabsha
DTITLE=w
DYEAR=1967
DGENRE=Blues
TTITLE0=One More Heartache
TTITLE1=Driftin' And Driftin'
TTITLE2=Pity The Fool
TTITLE3=Born Under A Bad Sign
TTITLE4=Run Out Of Time
TTITLE5=Double Trouble
TTITLE6=Drivin' Wheel
TTITLE7=Droppin' Out
TTITLE8=Tollin' Bells
EXTD=
EXTT0=
EXTT1=
EXTT2=
EXTT3=
EXTT4=
EXTT5=
EXTT6=
EXTT7=
EXTT8=
PLAYORDER=
